{"asset":{"generator":"glTF-Transform v4.2.1","version":"2.0"},"accessors":[{"type":"VEC3","componentType":5126,"count":24,"max":[1,1,-0.8845306634902954],"min":[-1,-1,-1],"bufferView":0,"byteOffset":0},{"type":"VEC3","componentType":5126,"count":24,"bufferView":0,"byteOffset":12},{"type":"VEC2","componentType":5126,"count":24,"bufferView":0,"byteOffset":24},{"type":"SCALAR","componentType":5123,"count":36,"bufferView":1,"byteOffset":0},{"type":"SCALAR","componentType":5125,"count":1792980,"bufferView":1,"byteOffset":72},{"type":"VEC3","componentType":5126,"count":298808,"max":[1.3776798248291016,0.039193373173475266,0.25508520007133484],"min":[-0.024410298094153404,-0.03917909786105156,-0.7903701663017273],"bufferView":2,"byteOffset":0},{"type":"VEC3","componentType":5126,"count":298808,"bufferView":2,"byteOffset":12}],"bufferViews":[{"buffer":0,"byteOffset":0,"byteLength":768,"byteStride":32,"target":34962},{"buffer":0,"byteOffset":768,"byteLength":7171992,"target":34963},{"buffer":0,"byteOffset":7172760,"byteLength":7171392,"byteStride":24,"target":34962}],"buffers":[{"uri":"wall-with-camera-in-front-of-it.bin","byteLength":14344152}],"materials":[{"name":"Material","doubleSided":true,"pbrMetallicRoughness":{"baseColorFactor":[0,0,0,1],"roughnessFactor":0.5,"metallicFactor":0}},{"name":"Material.001","doubleSided":true,"pbrMetallicRoughness":{"baseColorFactor":[0.8931646347045898,1,0.9578537940979004,1],"roughnessFactor":0.036363646388053894}}],"meshes":[{"name":"Cube","primitives":[{"attributes":{"POSITION":0,"NORMAL":1,"TEXCOORD_0":2},"mode":4,"material":0,"indices":3}]},{"name":"Text","primitives":[{"attributes":{"POSITION":5,"NORMAL":6},"mode":4,"material":1,"indices":4}]}],"nodes":[{"name":"Cube","translation":[-0.012817121110856533,0.9397594928741455,0],"mesh":0},{"name":"Text","translation":[-0.5772333145141602,0.7666929364204407,-0.683508038520813],"rotation":[0.7071068286895752,0,0,0.7071067690849304],"scale":[0.8755784034729004,0.8755784034729004,0.8755784034729004],"mesh":1}],"scenes":[{"name":"Scene","nodes":[0,1]}],"scene":0}