{"asset":{"generator":"glTF-Transform v4.2.1","version":"2.0"},"accessors":[{"type":"VEC3","componentType":5126,"count":133153,"max":[0.9985724687576294,0.9807261228561401,1.0565820932388306],"min":[-1.0611820220947266,-0.9365094900131226,-0.9824562072753906],"bufferView":0,"byteOffset":0},{"type":"VEC3","componentType":5126,"count":133153,"bufferView":0,"byteOffset":12},{"type":"VEC2","componentType":5126,"count":133153,"bufferView":0,"byteOffset":24},{"type":"SCALAR","componentType":5125,"count":786432,"bufferView":1,"byteOffset":0},{"type":"SCALAR","componentType":5123,"count":23040,"bufferView":1,"byteOffset":3145728},{"type":"SCALAR","componentType":5123,"count":16896,"bufferView":1,"byteOffset":3191808},{"type":"VEC3","componentType":5126,"count":4116,"max":[1.281328797340393,1.0416908264160156,0.989149272441864],"min":[-1.0931596755981445,-1.1803042888641357,-0.9856423735618591],"bufferView":2,"byteOffset":0},{"type":"VEC3","componentType":5126,"count":4116,"bufferView":2,"byteOffset":12},{"type":"VEC2","componentType":5126,"count":4116,"bufferView":2,"byteOffset":24},{"type":"VEC3","componentType":5126,"count":3103,"max":[1.2442210912704468,1.1655361652374268,0.9451273679733276],"min":[-1.1566649675369263,-1.1403344869613647,-0.9834288358688354],"bufferView":3,"byteOffset":0},{"type":"VEC3","componentType":5126,"count":3103,"bufferView":3,"byteOffset":12},{"type":"VEC2","componentType":5126,"count":3103,"bufferView":3,"byteOffset":24}],"bufferViews":[{"buffer":0,"byteOffset":0,"byteLength":4260896,"byteStride":32,"target":34962},{"buffer":0,"byteOffset":4260896,"byteLength":3225600,"target":34963},{"buffer":0,"byteOffset":7486496,"byteLength":131712,"byteStride":32,"target":34962},{"buffer":0,"byteOffset":7618208,"byteLength":99296,"byteStride":32,"target":34962}],"buffers":[{"uri":"oesy.bin","byteLength":7717504}],"materials":[{"name":"Material.001","doubleSided":true,"pbrMetallicRoughness":{"baseColorFactor":[0.6724433898925781,1,0.09305897355079651,1],"roughnessFactor":0.4000000059604645}},{"name":"Material.003","doubleSided":true,"pbrMetallicRoughness":{"baseColorFactor":[0.6724433898925781,1,0.09305897355079651,1],"roughnessFactor":0.4000000059604645}},{"name":"Material.002","doubleSided":true,"pbrMetallicRoughness":{"baseColorFactor":[0.6724561452865601,1,0.09305553883314133,1],"roughnessFactor":0.4000000059604645}}],"meshes":[{"name":"Cylinder","primitives":[{"attributes":{"POSITION":0,"NORMAL":1,"TEXCOORD_0":2},"mode":4,"material":0,"indices":3}]},{"name":"Cylinder.001","primitives":[{"attributes":{"POSITION":6,"NORMAL":7,"TEXCOORD_0":8},"mode":4,"material":1,"indices":4}]},{"name":"Cylinder.002","primitives":[{"attributes":{"POSITION":9,"NORMAL":10,"TEXCOORD_0":11},"mode":4,"material":2,"indices":5}]}],"nodes":[{"name":"Empty","translation":[0,1.937467336654663,-4.66360330581665],"rotation":[0.7071068286895752,0,0,0.7071068286895752]},{"name":"Cylinder","translation":[-0.006844174116849899,1.9316976070404053,-4.670452117919922],"rotation":[0.7071068286895752,0,0,0.7071068286895752],"scale":[1.9349805116653442,0.17547211050987244,1.9349805116653442],"mesh":0},{"name":"Cylinder.001","translation":[-0.7574729919433594,2.096444845199585,-4.67374849319458],"rotation":[0,0,-0.1662759780883789,0.9860793352127075],"scale":[0.2301616072654724,0.6953384876251221,0.17355720698833466],"mesh":1},{"name":"Cylinder.002","translation":[0.11762525141239166,1.7483893632888794,-4.66294527053833],"rotation":[0,0,-0.20305263996124268,0.9791678786277771],"scale":[0.23016159236431122,0.6953384876251221,0.17355720698833466],"mesh":2}],"scenes":[{"name":"Scene","nodes":[0,1,2,3]}],"scene":0}